#!OML:ASF Y:\EmotionMaleHayes\Project 1\Capture day 1\Session 1\Male1.ASF
:FULLY-SPECIFIED
:DEGREES
308
root 22.2949 15.6274 -6.02321 7.63259 14.1736 -374.16
lowerback 27.9433 11.216 3.8439
upperback 10.2777 15.4913 3.79957
thorax -3.57364 7.55114 -2.5456
lowerneck -14.8221 9.3634 15.9726
upperneck 11.423 11.6966 -15.1491
head 7.84163 5.16593 -6.20822
rclavicle 1.43125e-014 2.38542e-014
rhumerus -1.38997 -16.4722 -82.7304
rradius 31.372
rwrist 5.8576
rhand -26.7223 -26.3164
rfingers 7.12502
rthumb -0.1519 -56.296
lclavicle 1.43125e-014 2.38542e-014
lhumerus -37.0265 37.3255 6.98207
lradius 40.3232
lwrist 33.0958
lhand -46.4738 -38.9444
lfingers 7.12502
lthumb -19.2014 -9.87224
rfemur 4.67385 3.30718 2.04487
rtibia 60.8458
rfoot -5.70397 -5.49796
rtoes 22.2133
lfemur -51.8034 11.1584 -8.44733
ltibia 60.1928
lfoot -20.5916 10.0042
ltoes 13.0183
309
root 22.6254 15.5616 -5.9397 7.6158 12.3931 -373.241
lowerback 27.7825 11.5695 2.50179
upperback 10.2951 15.6124 4.12771
thorax -3.91963 7.56433 -1.57241
lowerneck -14.1047 9.58153 15.9176
upperneck 11.9198 12.2567 -15.6047
head 8.00343 5.42283 -6.29684
rclavicle -9.54166e-015 6.52014e-014
rhumerus -5.82006 -20.5905 -79.6175
rradius 30.6594
rwrist 4.83592
rhand -26.4737 -26.778
rfingers 7.12502
rthumb 0.088247 -56.7578
lclavicle -9.54166e-015 6.52014e-014
lhumerus -38.8818 38.5597 2.52429
lradius 40.9689
lwrist 35.2425
lhand -47.7137 -39.0166
lfingers 7.12502
lthumb -20.3933 -10.0674
rfemur 2.02696 1.5579 -2.60405
rtibia 63.4429
rfoot -7.15926 -7.2815
rtoes 24.6024
lfemur -50.8304 11.7561 -10.7308
ltibia 61.2364
lfoot -22.5632 10.6184
ltoes 14.8673
310
root 22.9668 15.5352 -5.84745 6.92224 10.7401 -374.168
lowerback 28.0904 11.6145 3.05682
upperback 10.2569 15.8702 4.85802
thorax -4.17449 7.66733 -1.23559
lowerneck -13.7376 9.80528 15.6551
upperneck 12.7472 12.8017 -15.7413
head 8.2958 5.66532 -6.23687
rclavicle -1.03368e-013 8.11041e-014
rhumerus -10.2759 -24.5804 -75.4891
rradius 30.0832
rwrist 3.67665
rhand -26.364 -28.0933
rfingers 7.12502
rthumb 0.194167 -58.0729
lclavicle -1.03368e-013 8.11041e-014
lhumerus -40.4412 39.4423 -1.54791
lradius 41.7092
lwrist 36.5451
lhand -48.5056 -40.8402
lfingers 7.12502
lthumb -21.1542 -11.9743
rfemur -0.342995 -0.0212931 -4.56607
rtibia 65.4556
rfoot -8.61149 -9.52117
rtoes 27.4632
lfemur -49.4512 12.7462 -10.8653
ltibia 62.3405
lfoot -24.5728 10.9448
ltoes 15.9232
311
root 23.3175 15.5254 -5.75248 6.45481 8.85717 -374.259
lowerback 28.4166 11.6859 2.99849
upperback 10.3413 15.9662 5.22368
thorax -4.35434 7.69234 -0.913216
lowerneck -13.2383 10.1454 15.4749
upperneck 13.1048 13.5212 -16.2027
head 8.47387 5.98145 -6.27309
rclavicle -1.23246e-013 9.22361e-014
rhumerus -14.6516 -26.9331 -70.9331
rradius 30.0328
rwrist 0.225804
rhand -26.2407 -29.6037
rfingers 7.12502
rthumb 0.313264 -59.5832
lclavicle -1.23246e-013 9.22361e-014
lhumerus -41.7014 40.4835 -5.50544
lradius 42.3782
lwrist 37.0506
lhand -49.123 -41.9246
lfingers 7.12502
lthumb -21.7471 -13.1263
rfemur -2.93432 -1.93968 -7.34185
rtibia 67.0702
rfoot -9.43345 -11.3309
rtoes 29.842
lfemur -47.7574 13.5199 -11.9055
ltibia 62.9077
lfoot -26.3296 11.5664
ltoes 16.0786
312
root 23.6704 15.5231 -5.652 5.86459 7.01137 -373.493
lowerback 28.9518 11.7532 2.37392
upperback 10.6171 15.8665 5.24283
thorax -4.45708 7.62301 -0.621334
lowerneck -13.4672 10.5816 15.7185
upperneck 13.4715 14.2027 -16.709
head 8.81996 6.2591 -6.37283
rclavicle 5.96354e-014 -3.65764e-014
rhumerus -18.6445 -28.522 -66.2785
rradius 30.0809
rwrist -4.05699
rhand -25.9595 -31.3571
rfingers 7.12502
rthumb 0.584876 -61.3361
lclavicle 5.96354e-014 -3.65764e-014
lhumerus -42.1525 41.6103 -9.0939
lradius 42.6297
lwrist 37.0301
lhand -49.6379 -42.8025
lfingers 7.12502
lthumb -22.2415 -14.0623
rfemur -5.36619 -4.05776 -10.7713
rtibia 68.3712
rfoot -9.88954 -12.3459
rtoes 30.6503
lfemur -45.4932 13.7686 -13.8353
ltibia 62.8079
lfoot -28.0351 12.091
ltoes 16.8949
313
root 24.0306 15.533 -5.55357 5.24644 5.3651 -372.763
lowerback 29.5699 11.7034 2.10316
upperback 10.881 15.698 5.1465
thorax -4.47921 7.52873 -0.607744
lowerneck -13.957 10.9563 15.947
upperneck 13.7915 14.7612 -17.1929
head 9.1813 6.46475 -6.4707
rclavicle -5.64548e-014 2.8625e-014
rhumerus -22.3518 -32.64 -60.9352
rradius 29.295
rwrist -5.78473
rhand -25.9894 -32.9605
rfingers 7.12502
rthumb 0.556004 -62.9395
lclavicle -5.64548e-014 2.8625e-014
lhumerus -41.5657 42.4992 -11.7669
lradius 42.6531
lwrist 36.8998
lhand -49.7673 -43.4947
lfingers 7.12502
lthumb -22.3658 -14.7694
rfemur -7.93318 -5.95971 -13.521
rtibia 69.4471
rfoot -10.5564 -12.9031
rtoes 31.4419
lfemur -43.1921 14.2843 -15.825
ltibia 62.0697
lfoot -29.2543 12.4901
ltoes 18.1026
314
root 24.3876 15.5555 -5.45877 4.71664 3.77959 -372.515
lowerback 30.0439 11.609 2.31644
upperback 11.0813 15.6123 5.1436
thorax -4.40959 7.48425 -0.740284
lowerneck -14.1275 11.1866 15.7919
upperneck 13.7246 15.1455 -17.454
head 9.27374 6.60952 -6.46077
rclavicle -1.53462e-013 3.02153e-014
rhumerus -26.2623 -35.9313 -54.9877
rradius 29.0737
rwrist -8.62832
rhand -27.1567 -35.9087
rfingers 7.12502
rthumb -0.571434 -65.8877
lclavicle -1.53462e-013 3.02153e-014
lhumerus -40.2141 43.1909 -13.4851
lradius 42.7539
lwrist 36.7314
lhand -49.6668 -43.7511
lfingers 7.12502
lthumb -22.2693 -15.0142
rfemur -10.9273 -7.50958 -14.9769
rtibia 70.3811
rfoot -11.1736 -13.278
rtoes 32.1278
lfemur -41.0298 14.8556 -17.2536
ltibia 61.0794
lfoot -30.2451 13.2017
ltoes 19.2344
